<?xml version="1.0" standalone="no"?>
<!DOCTYPE svg PUBLIC "-//W3C//DTD SVG 20010904//EN"
 "http://www.w3.org/TR/2001/REC-SVG-20010904/DTD/svg10.dtd">
<svg version="1.0" xmlns="http://www.w3.org/2000/svg"
 width="100.000000pt" height="100.000000pt" viewBox="0 0 100.000000 100.000000"
 preserveAspectRatio="xMidYMid meet">

<g transform="translate(0.000000,100.000000) scale(0.100000,-0.100000)"
fill="#000000" stroke="none">
<path d="M400 828 c-25 -13 -54 -37 -66 -55 l-21 -31 -16 28 c-19 31 -72 60
-112 60 -37 0 -98 -36 -118 -70 -31 -52 -15 -139 32 -172 11 -8 21 -28 23 -48
3 -33 1 -35 -31 -38 -18 -2 -38 1 -44 7 -24 24 -38 12 -35 -31 l3 -43 56 3 57
4 7 -112 c6 -86 11 -113 22 -117 16 -6 474 23 526 33 25 5 27 10 27 50 0 30 5
46 15 50 8 4 15 11 15 18 0 6 18 20 40 30 l39 19 72 -52 c82 -61 99 -68 100
-50 8 87 -9 341 -22 337 -5 -2 -40 -34 -78 -71 -67 -67 -69 -68 -110 -61 -23
4 -48 13 -56 20 -7 8 -18 14 -24 14 -5 0 -11 15 -13 33 l-3 32 -68 3 -67 3 15
29 c30 58 12 140 -37 172 -43 29 -80 30 -128 6z m-57 -198 l18 -30 -40 0 -40
0 17 30 c9 16 19 30 22 30 3 0 14 -13 23 -30z m617 -61 c0 -17 -4 -28 -10 -24
-5 3 -8 16 -6 28 6 28 5 27 11 27 3 0 5 -14 5 -31z m-307 -88 c4 -56 3 -110
-2 -123 -7 -16 -10 11 -10 96 -1 105 -3 117 -17 112 -34 -13 -194 -19 -194 -8
0 7 34 12 98 15 53 1 102 4 108 5 7 1 13 -34 17 -97z m-288 68 c18 -4 -6 -6
-60 -2 -50 3 -92 7 -94 9 -8 7 124 2 154 -7z m-112 -16 c-7 -2 -19 -2 -25 0
-7 3 -2 5 12 5 14 0 19 -2 13 -5z m-76 -80 c-2 -16 -4 -3 -4 27 0 30 2 43 4
28 2 -16 2 -40 0 -55z m25 20 c-2 -32 -7 -61 -10 -65 -7 -7 -4 87 3 110 8 24
10 11 7 -45z m678 54 c0 -2 -12 -14 -27 -28 l-28 -24 24 28 c23 25 31 32 31
24z m-73 -89 c-3 -8 -6 -5 -6 6 -1 11 2 17 5 13 3 -3 4 -12 1 -19z m161 -69
c-3 -31 -4 -31 -18 -14 -9 11 -10 16 -2 11 9 -5 12 5 13 41 1 29 4 37 6 21 2
-15 3 -42 1 -59z m-87 44 c13 -16 12 -17 -3 -4 -10 7 -18 15 -18 17 0 8 8 3
21 -13z m-671 -90 c0 -22 -2 -25 -10 -13 -7 11 -10 7 -10 -17 0 -22 5 -33 18
-36 13 -4 11 -5 -5 -6 -19 -1 -23 4 -23 29 0 25 18 70 27 70 2 0 3 -12 3 -27z
m457 -25 c-3 -7 -5 -2 -5 12 0 14 2 19 5 13 2 -7 2 -19 0 -25z m-54 15 c-7 -2
-19 -2 -25 0 -7 3 -2 5 12 5 14 0 19 -2 13 -5z m-75 -10 c-10 -2 -26 -2 -35 0
-10 3 -2 5 17 5 19 0 27 -2 18 -5z m-100 -10 c-10 -2 -26 -2 -35 0 -10 3 -2 5
17 5 19 0 27 -2 18 -5z m-159 -6 c-2 -1 -12 -9 -22 -16 -15 -12 -17 -12 -11 3
3 9 13 16 22 16 8 0 13 -1 11 -3z m41 -1 c0 -2 -8 -10 -17 -17 -16 -13 -17
-12 -4 4 13 16 21 21 21 13z m31 -19 c-10 -9 -11 -8 -5 6 3 10 9 15 12 12 3
-3 0 -11 -7 -18z m242 16 c-13 -2 -33 -2 -45 0 -13 2 -3 4 22 4 25 0 35 -2 23
-4z m-135 -10 c-10 -2 -28 -2 -40 0 -13 2 -5 4 17 4 22 1 32 -1 23 -4z"/>
</g>
</svg>
