<?xml version="1.0" standalone="no"?>
<!DOCTYPE svg PUBLIC "-//W3C//DTD SVG 20010904//EN"
 "http://www.w3.org/TR/2001/REC-SVG-20010904/DTD/svg10.dtd">
<svg version="1.0" xmlns="http://www.w3.org/2000/svg"
 width="100.000000pt" height="100.000000pt" viewBox="0 0 100.000000 100.000000"
 preserveAspectRatio="xMidYMid meet">

<g transform="translate(0.000000,100.000000) scale(0.100000,-0.100000)"
fill="#000000" stroke="none">
<path d="M81 983 c-54 -28 -75 -65 -76 -131 l0 -57 33 -3 32 -3 0 50 c0 69 22
91 91 91 l50 0 -3 33 c-3 30 -5 32 -48 35 -28 1 -58 -4 -79 -15z"/>
<path d="M790 965 l0 -35 50 0 c68 0 90 -22 90 -91 l0 -50 33 3 32 3 -1 58
c-2 94 -59 147 -156 147 l-48 0 0 -35z"/>
<path d="M100 765 l0 -135 130 0 130 0 0 135 0 135 -130 0 -130 0 0 -135z
m220 0 l0 -95 -90 0 -90 0 0 95 0 95 90 0 90 0 0 -95z"/>
<path d="M170 765 l0 -55 60 0 60 0 0 55 0 55 -60 0 -60 0 0 -55z"/>
<path d="M440 880 c0 -13 -7 -20 -20 -20 -13 0 -20 -7 -20 -20 0 -13 7 -20 20
-20 11 0 20 -7 20 -15 0 -8 -9 -15 -20 -15 -13 0 -20 -7 -20 -20 0 -13 7 -20
20 -20 13 0 20 7 20 20 0 13 7 20 20 20 11 0 20 7 20 15 0 8 -9 15 -20 15 -13
0 -20 7 -20 19 0 10 9 21 20 24 11 3 20 12 20 21 0 9 -8 16 -20 16 -13 0 -20
-7 -20 -20z"/>
<path d="M550 880 c0 -14 -7 -20 -21 -20 -25 0 -22 -33 4 -38 12 -2 17 3 17
17 0 14 6 21 20 21 13 0 20 7 20 20 0 13 -7 20 -20 20 -13 0 -20 -7 -20 -20z"/>
<path d="M630 765 l0 -135 130 0 130 0 0 135 0 135 -130 0 -130 0 0 -135z
m220 0 l0 -96 -92 3 -93 3 -3 93 -3 92 96 0 95 0 0 -95z"/>
<path d="M700 765 l0 -56 56 3 56 3 2 53 1 52 -57 0 -58 0 0 -55z"/>
<path d="M513 770 c-3 -11 -12 -20 -19 -20 -8 0 -14 -9 -14 -20 0 -17 -7 -20
-40 -20 l-40 0 0 -40 c0 -30 4 -40 16 -40 9 0 18 9 21 20 3 11 14 20 24 20 15
0 19 -7 19 -40 l0 -40 -80 0 c-64 0 -80 -3 -80 -15 0 -12 16 -15 80 -15 73 0
80 -2 80 -20 0 -14 -7 -20 -21 -20 -12 0 -23 -8 -26 -20 -3 -11 -12 -20 -19
-20 -8 0 -14 -9 -14 -20 0 -18 -7 -20 -55 -20 -48 0 -55 2 -55 20 0 17 7 20
40 20 33 0 40 3 40 20 0 18 -7 20 -60 20 -53 0 -60 2 -60 20 0 13 7 20 20 20
11 0 20 7 20 15 0 12 -17 15 -95 15 l-95 0 0 -35 c0 -33 2 -35 34 -35 25 0 35
5 39 20 3 11 12 20 21 20 9 0 16 -8 16 -20 0 -13 -7 -20 -20 -20 -13 0 -20 -7
-20 -20 0 -14 -6 -20 -18 -18 -11 2 -17 -3 -17 -17 0 -11 -8 -21 -18 -23 -9
-2 -17 -12 -17 -23 0 -15 7 -19 35 -19 30 0 35 3 35 24 0 37 10 56 31 56 13 0
19 7 19 21 0 36 25 15 28 -24 3 -32 0 -37 -18 -37 -15 0 -20 -5 -18 -17 5 -26
38 -29 38 -4 0 14 6 21 20 21 13 0 20 -7 20 -20 0 -18 7 -20 55 -20 l55 0 0
-35 c0 -28 4 -35 20 -35 13 0 20 7 20 20 0 13 7 20 20 20 11 0 20 7 20 15 0 8
7 15 15 15 8 0 15 -7 15 -15 0 -8 9 -15 20 -15 13 0 20 -7 20 -20 0 -13 -7
-20 -20 -20 -13 0 -20 7 -20 20 0 11 -7 20 -15 20 -8 0 -15 -9 -15 -20 0 -11
7 -20 15 -20 8 0 15 -9 15 -20 0 -18 -7 -20 -55 -20 l-55 0 0 -95 c0 -88 1
-95 20 -95 18 0 20 7 20 75 0 68 2 75 20 75 18 0 20 -7 20 -55 0 -42 3 -55 15
-55 8 0 15 -9 15 -20 0 -13 7 -20 20 -20 13 0 20 7 20 20 0 13 -7 20 -20 20
-11 0 -20 7 -20 15 0 8 9 15 20 15 13 0 20 7 20 19 0 10 -9 21 -20 24 -15 4
-20 14 -20 41 0 29 4 36 20 36 17 0 20 -7 20 -40 0 -33 3 -40 20 -40 14 0 20
-7 20 -21 0 -25 33 -22 38 4 2 12 -3 17 -17 17 -18 0 -21 6 -21 40 0 39 1 40
35 40 25 0 35 4 35 16 0 9 9 18 20 21 27 7 27 43 -1 43 -15 0 -19 5 -15 15 4
10 -1 15 -14 15 -13 0 -20 7 -20 20 0 13 -7 20 -19 20 -10 0 -21 -9 -24 -20
-7 -26 -37 -26 -37 0 0 13 -7 20 -20 20 -26 0 -26 30 -1 37 11 3 21 13 24 24
7 25 27 24 27 -1 0 -15 7 -20 25 -20 18 0 25 5 25 20 0 13 -7 20 -20 20 -13 0
-20 7 -20 20 0 13 7 20 20 20 11 0 20 7 20 15 0 8 -9 15 -20 15 -18 0 -20 7
-20 80 0 73 -2 80 -20 80 -13 0 -20 7 -20 20 0 12 -7 20 -16 20 -9 0 -18 -9
-21 -20z m37 -101 c0 -33 -3 -40 -17 -37 -13 2 -19 14 -21 41 -3 32 0 37 17
37 18 0 21 -6 21 -41z m0 -114 c0 -28 -4 -35 -20 -35 -13 0 -20 7 -20 20 0 11
-7 20 -15 20 -8 0 -15 7 -15 15 0 10 11 15 35 15 33 0 35 -2 35 -35z m-75 -95
c0 -8 -8 -16 -17 -18 -13 -2 -18 3 -18 18 0 15 5 20 18 18 9 -2 17 -10 17 -18z
m153 -113 c2 -12 -3 -17 -17 -17 -15 0 -21 6 -21 21 0 25 33 22 38 -4z"/>
<path d="M660 555 c0 -28 4 -35 20 -35 16 0 20 7 20 35 0 28 -4 35 -20 35 -16
0 -20 -7 -20 -35z"/>
<path d="M740 575 c0 -8 9 -15 20 -15 13 0 20 -7 20 -20 0 -11 7 -20 15 -20 8
0 15 -9 15 -20 0 -14 -6 -20 -17 -18 -14 3 -17 -4 -14 -39 2 -38 0 -43 -18
-43 -19 0 -21 6 -21 60 0 53 -2 60 -20 60 -13 0 -20 -7 -20 -20 0 -14 -6 -20
-17 -18 -25 4 -30 -32 -5 -39 11 -3 22 -13 25 -24 3 -10 12 -19 21 -19 9 0 16
-7 16 -15 0 -8 9 -15 20 -15 11 0 20 7 20 15 0 8 7 15 15 15 10 0 15 -11 15
-35 0 -28 4 -35 20 -35 13 0 20 -7 20 -20 0 -13 7 -20 20 -20 13 0 20 7 20 20
0 13 -7 20 -20 20 -16 0 -20 7 -20 35 0 28 -4 35 -20 35 -13 0 -20 7 -20 20 0
13 7 20 19 20 24 0 32 31 24 98 -5 43 -9 52 -25 52 -14 0 -18 -5 -14 -15 4
-10 -1 -15 -14 -15 -11 0 -20 7 -20 15 0 8 -9 15 -20 15 -11 0 -20 -7 -20 -15z"/>
<path d="M100 235 l0 -135 130 0 130 0 0 135 0 135 -130 0 -130 0 0 -135z
m220 0 l0 -95 -90 0 -90 0 0 95 0 95 90 0 90 0 0 -95z"/>
<path d="M174 276 c-3 -7 -4 -33 -2 -57 l3 -44 55 0 55 0 3 58 3 57 -56 0
c-38 0 -57 -4 -61 -14z"/>
<path d="M740 310 c0 -14 7 -20 21 -20 17 0 20 -5 17 -37 -3 -36 -5 -38 -40
-41 l-38 -3 0 40 c0 34 -3 41 -20 41 -16 0 -20 -7 -20 -36 0 -27 5 -37 20 -41
11 -3 20 -14 20 -24 0 -12 -7 -19 -20 -19 -11 0 -20 -7 -20 -15 0 -8 9 -15 20
-15 13 0 20 -7 20 -20 0 -18 7 -20 75 -20 68 0 75 2 75 20 0 14 -7 20 -21 20
-19 0 -20 5 -18 73 2 59 -1 73 -13 75 -9 2 -18 12 -21 23 -7 25 -37 25 -37 -1z
m40 -155 c0 -8 -9 -15 -20 -15 -11 0 -20 7 -20 15 0 8 9 15 20 15 11 0 20 -7
20 -15z"/>
<path d="M0 165 c0 -58 20 -106 55 -133 22 -17 41 -22 91 -22 l64 0 0 30 c0
28 -2 30 -41 30 -41 0 -78 14 -91 34 -4 6 -8 32 -8 59 l0 47 -35 0 c-35 0 -35
0 -35 -45z"/>
<path d="M930 165 c0 -64 -31 -95 -95 -95 -43 0 -45 -1 -45 -30 l0 -30 66 0
c61 0 68 2 99 33 24 24 35 46 40 79 10 68 5 83 -33 86 -32 3 -32 3 -32 -43z"/>
<path d="M590 121 c0 -15 6 -21 21 -21 14 0 19 5 17 17 -5 26 -38 29 -38 4z"/>
</g>
</svg>
